<svg width="375" height="667" xmlns="http://www.w3.org/2000/svg">
  <rect width="375" height="667" fill="#F9FAFB"/>
  <text x="187.5" y="50" font-size="20" font-family="Montserrat, Arial, sans-serif" fill="#1A73E8" text-anchor="middle">Estado del pago</text>
  <rect x="65" y="90" width="245" height="400" rx="16" fill="#fff" stroke="#E3EAFD"/>
  <circle cx="100" cy="130" r="12" fill="#1A73E8"/>
  <text x="120" y="135" font-size="15" font-family="Montserrat, Arial, sans-serif" fill="#222">Pago iniciado</text>
  <rect x="105" y="142" width="2" height="38" fill="#E3EAFD"/>
  <circle cx="100" cy="180" r="12" fill="#1A73E8"/>
  <text x="120" y="185" font-size="15" font-family="Montserrat, Arial, sans-serif" fill="#222">Aceptado por vendedor</text>
  <rect x="105" y="192" width="2" height="38" fill="#E3EAFD"/>
  <circle cx="100" cy="230" r="12" fill="#FFC107"/>
  <text x="120" y="235" font-size="15" font-family="Montserrat, Arial, sans-serif" fill="#222">En custodia</text>
  <rect x="105" y="242" width="2" height="38" fill="#E3EAFD"/>
  <circle cx="100" cy="280" r="12" fill="#4CAF50"/>
  <text x="120" y="285" font-size="15" font-family="Montserrat, Arial, sans-serif" fill="#222">Liberado</text>
  <rect x="105" y="292" width="2" height="38" fill="#E3EAFD"/>
  <circle cx="100" cy="330" r="12" fill="#F44336"/>
  <text x="120" y="335" font-size="15" font-family="Montserrat, Arial, sans-serif" fill="#222">Reclamado</text>
  <rect x="87.5" y="510" width="200" height="40" rx="20" fill="#E3EAFD"/>
  <text x="187.5" y="535" font-size="15" font-family="Montserrat, Arial, sans-serif" fill="#1A73E8" text-anchor="middle">Ver detalles</text>
  <text x="187.5" y="650" font-size="10" font-family="Montserrat, Arial, sans-serif" fill="#888" text-anchor="middle">© 2025 Tecnologias Avanzadas Centrales SAPI de CV. Todos los derechos reservados.</text>
  <text x="187.5" y="662" font-size="10" font-family="Montserrat, Arial, sans-serif" fill="#888" text-anchor="middle">Términos y condiciones | Aviso de privacidad</text>
</svg>
